<svg width="157" height="48" viewBox="0 0 157 48" fill="none" xmlns="http://www.w3.org/2000/svg">
<path d="M74.2734 20.3984H77.0625C77.0078 17.6953 74.7031 15.7812 71.2969 15.7812C67.9375 15.7812 65.4141 17.6719 65.4219 20.5C65.4219 22.7969 67.0547 24.1172 69.6875 24.7969L71.5078 25.2656C73.2344 25.7031 74.375 26.2422 74.3828 27.4844C74.375 28.8516 73.0781 29.7656 71.1875 29.7656C69.375 29.7656 67.9688 28.9531 67.8516 27.2734H65C65.1172 30.4531 67.4844 32.2422 71.2109 32.2422C75.0469 32.2422 77.2734 30.3281 77.2813 27.5078C77.2734 24.7344 74.9844 23.4687 72.5781 22.8984L71.0781 22.5234C69.7656 22.2109 68.3438 21.6562 68.3594 20.3203C68.3672 19.1172 69.4453 18.2344 71.2578 18.2344C72.9844 18.2344 74.125 19.0391 74.2734 20.3984ZM83.1934 32.2422C85.0762 32.2422 86.2012 31.3594 86.7168 30.3516H86.8105V32H89.5293V23.9687C89.5293 20.7969 86.9434 19.8438 84.6543 19.8438C82.1309 19.8438 80.1934 20.9687 79.5684 23.1562L82.209 23.5312C82.4902 22.7109 83.2871 22.0078 84.6699 22.0078C85.9824 22.0078 86.7012 22.6797 86.7012 23.8594V23.9062C86.7012 24.7188 85.8496 24.7578 83.7324 24.9844C81.4043 25.2344 79.1777 25.9297 79.1777 28.6328C79.1777 30.9922 80.9043 32.2422 83.1934 32.2422ZM83.9277 30.1641C82.748 30.1641 81.9043 29.625 81.9043 28.5859C81.9043 27.5 82.8496 27.0469 84.1152 26.8672C84.8574 26.7656 86.3418 26.5781 86.709 26.2812V27.6953C86.709 29.0312 85.6309 30.1641 83.9277 30.1641ZM92.373 32H95.2012V24.7031C95.2012 23.2266 96.1855 22.2266 97.4043 22.2266C98.5996 22.2266 99.4199 23.0312 99.4199 24.2656V32H102.193V24.5156C102.193 23.1641 102.998 22.2266 104.365 22.2266C105.506 22.2266 106.412 22.8984 106.412 24.3828V32H109.248V23.9453C109.248 21.2656 107.701 19.8438 105.498 19.8438C103.756 19.8438 102.428 20.7031 101.896 22.0391H101.771C101.311 20.6797 100.146 19.8438 98.5293 19.8438C96.9199 19.8438 95.7168 20.6719 95.2168 22.0391H95.0762V20H92.373V32ZM112.117 36.5H114.945V30.1094H115.063C115.508 30.9844 116.438 32.2109 118.5 32.2109C121.328 32.2109 123.445 29.9687 123.445 26.0156C123.445 22.0156 121.266 19.8438 118.492 19.8438C116.375 19.8438 115.492 21.1172 115.063 21.9844H114.898V20H112.117V36.5ZM114.891 26C114.891 23.6719 115.891 22.1641 117.711 22.1641C119.594 22.1641 120.563 23.7656 120.563 26C120.563 28.25 119.578 29.8906 117.711 29.8906C115.906 29.8906 114.891 28.3281 114.891 26ZM128.695 16H125.867V32H128.695V16ZM136.916 32.2344C139.713 32.2344 141.635 30.8672 142.135 28.7812L139.494 28.4844C139.111 29.5 138.174 30.0312 136.955 30.0312C135.127 30.0312 133.916 28.8281 133.893 26.7734H142.252V25.9062C142.252 21.6953 139.721 19.8438 136.768 19.8438C133.33 19.8438 131.088 22.3672 131.088 26.0703C131.088 29.8359 133.299 32.2344 136.916 32.2344ZM133.9 24.8672C133.986 23.3359 135.119 22.0469 136.807 22.0469C138.432 22.0469 139.525 23.2344 139.541 24.8672H133.9Z" fill="#5E81F4"/>
<rect width="48" height="48" rx="12" fill="#5E81F4"/>
<path d="M23.528 15.672C25.224 15.672 26.704 16.016 27.968 16.704C29.248 17.392 30.24 18.392 30.944 19.704C31.648 21 32 22.552 32 24.36C32 26.12 31.64 27.68 30.92 29.04C30.2 30.4 29.192 31.456 27.896 32.208C26.616 32.96 25.152 33.336 23.504 33.336C21.808 33.336 20.32 32.992 19.04 32.304C17.776 31.616 16.792 30.624 16.088 29.328C15.384 28.016 15.032 26.456 15.032 24.648C15.032 22.888 15.392 21.328 16.112 19.968C16.832 18.608 17.832 17.552 19.112 16.8C20.408 16.048 21.88 15.672 23.528 15.672ZM23.432 16.104C22.552 16.104 21.776 16.464 21.104 17.184C20.432 17.888 19.912 18.88 19.544 20.16C19.192 21.44 19.016 22.904 19.016 24.552C19.016 26.216 19.216 27.68 19.616 28.944C20.032 30.208 20.584 31.184 21.272 31.872C21.976 32.56 22.752 32.904 23.6 32.904C24.48 32.904 25.256 32.552 25.928 31.848C26.6 31.128 27.112 30.128 27.464 28.848C27.832 27.568 28.016 26.104 28.016 24.456C28.016 22.792 27.808 21.328 27.392 20.064C26.992 18.8 26.44 17.824 25.736 17.136C25.048 16.448 24.28 16.104 23.432 16.104Z" fill="white"/>
</svg>
